HIERARCHY
ROOT mixamorig:Hips
{
	OFFSET 0.000000 77.714516 0.000000
	CHANNELS 6 Xposition Yposition Zposition Xrotation Yrotation Zrotation
	JOINT mixamorig:Spine
	{
		OFFSET 0.000000 14.685699 -1.734700
		CHANNELS 3 Xrotation Yrotation Zrotation
		JOINT mixamorig:Spine1
		{
			OFFSET 0.000000 17.133286 -2.023825
			CHANNELS 3 Xrotation Yrotation Zrotation
			JOINT mixamorig:Spine2
			{
				OFFSET 0.000000 19.580956 -2.312950
				CHANNELS 3 Xrotation Yrotation Zrotation
				JOINT mixamorig:Neck
				{
					OFFSET 0.000000 22.028564 -2.602067
					CHANNELS 3 Xrotation Yrotation Zrotation
					JOINT mixamorig:Head
					{
						OFFSET 0.000000 7.772293 1.167700
						CHANNELS 3 Xrotation Yrotation Zrotation
						JOINT mixamorig:HeadTop_End
						{
							OFFSET 0.000000 26.518204 3.983900
							CHANNELS 3 Xrotation Yrotation Zrotation
							End Site
							{
								OFFSET 0.000000 26.815781 0.000000
							}
						}
					}
				}
				JOINT mixamorig:LeftShoulder
				{
					OFFSET 11.646600 18.513336 -2.583780
					CHANNELS 3 Xrotation Yrotation Zrotation
					JOINT mixamorig:LeftArm
					{
						OFFSET 23.544209 -6.614426 0.036475
						CHANNELS 3 Xrotation Yrotation Zrotation
						JOINT mixamorig:LeftForeArm
						{
							OFFSET 22.756695 0.000000 -0.000001
							CHANNELS 3 Xrotation Yrotation Zrotation
							JOINT mixamorig:LeftHand
							{
								OFFSET 32.238304 0.000000 -0.000001
								CHANNELS 3 Xrotation Yrotation Zrotation
								JOINT mixamorig:LeftHandThumb1
								{
									OFFSET 4.391930 -2.771759 4.066533
									CHANNELS 3 Xrotation Yrotation Zrotation
									JOINT mixamorig:LeftHandThumb2
									{
										OFFSET 4.087418 -2.359879 2.359871
										CHANNELS 3 Xrotation Yrotation Zrotation
										JOINT mixamorig:LeftHandThumb3
										{
											OFFSET 4.044945 -2.335342 2.335349
											CHANNELS 3 Xrotation Yrotation Zrotation
											JOINT mixamorig:LeftHandThumb4
											{
												OFFSET 3.242561 -1.872101 1.872095
												CHANNELS 3 Xrotation Yrotation Zrotation
												End Site
												{
													OFFSET 2.876892 -1.863678 2.402885
												}
											}
										}
									}
								}
								JOINT mixamorig:LeftHandIndex1
								{
									OFFSET 13.080666 -0.495590 3.860911
									CHANNELS 3 Xrotation Yrotation Zrotation
									JOINT mixamorig:LeftHandIndex2
									{
										OFFSET 4.467804 0.000000 0.000000
										CHANNELS 3 Xrotation Yrotation Zrotation
										JOINT mixamorig:LeftHandIndex3
										{
											OFFSET 4.434097 0.000000 0.000000
											CHANNELS 3 Xrotation Yrotation Zrotation
											JOINT mixamorig:LeftHandIndex4
											{
												OFFSET 3.589699 0.000000 0.000000
												CHANNELS 3 Xrotation Yrotation Zrotation
												End Site
												{
													OFFSET 3.589706 0.000000 0.000200
												}
											}
										}
									}
								}
								JOINT mixamorig:LeftHandMiddle1
								{
									OFFSET 12.178093 0.000000 0.000000
									CHANNELS 3 Xrotation Yrotation Zrotation
									JOINT mixamorig:LeftHandMiddle2
									{
										OFFSET 5.491508 0.000000 0.000000
										CHANNELS 3 Xrotation Yrotation Zrotation
										JOINT mixamorig:LeftHandMiddle3
										{
											OFFSET 5.202805 0.000000 0.000000
											CHANNELS 3 Xrotation Yrotation Zrotation
											JOINT mixamorig:LeftHandMiddle4
											{
												OFFSET 4.456505 0.000000 0.000000
												CHANNELS 3 Xrotation Yrotation Zrotation
												End Site
												{
													OFFSET 4.456505 -0.000046 0.006499
												}
											}
										}
									}
								}
								JOINT mixamorig:LeftHandRing1
								{
									OFFSET 11.850945 -0.053970 -3.835439
									CHANNELS 3 Xrotation Yrotation Zrotation
									JOINT mixamorig:LeftHandRing2
									{
										OFFSET 4.691414 0.000000 0.000000
										CHANNELS 3 Xrotation Yrotation Zrotation
										JOINT mixamorig:LeftHandRing3
										{
											OFFSET 4.518303 0.000000 0.000000
											CHANNELS 3 Xrotation Yrotation Zrotation
											JOINT mixamorig:LeftHandRing4
											{
												OFFSET 3.568130 0.000000 0.000000
												CHANNELS 3 Xrotation Yrotation Zrotation
												End Site
												{
													OFFSET 3.568100 -0.000168 0.014599
												}
											}
										}
									}
								}
								JOINT mixamorig:LeftHandPinky1
								{
									OFFSET 10.491814 -0.458572 -7.033705
									CHANNELS 3 Xrotation Yrotation Zrotation
									JOINT mixamorig:LeftHandPinky2
									{
										OFFSET 4.452301 0.000000 0.000000
										CHANNELS 3 Xrotation Yrotation Zrotation
										JOINT mixamorig:LeftHandPinky3
										{
											OFFSET 3.536598 0.000000 0.000000
											CHANNELS 3 Xrotation Yrotation Zrotation
											JOINT mixamorig:LeftHandPinky4
											{
												OFFSET 2.823502 0.000000 0.000000
												CHANNELS 3 Xrotation Yrotation Zrotation
												End Site
												{
													OFFSET 2.823502 0.000000 0.000600
												}
											}
										}
									}
								}
							}
						}
					}
				}
				JOINT mixamorig:RightShoulder
				{
					OFFSET -11.646600 18.513351 -2.620334
					CHANNELS 3 Xrotation Yrotation Zrotation
					JOINT mixamorig:RightArm
					{
						OFFSET -23.544205 -6.614441 -0.036501
						CHANNELS 3 Xrotation Yrotation Zrotation
						JOINT mixamorig:RightForeArm
						{
							OFFSET -22.759399 0.000000 0.000001
							CHANNELS 3 Xrotation Yrotation Zrotation
							JOINT mixamorig:RightHand
							{
								OFFSET -32.238106 0.000000 0.000001
								CHANNELS 3 Xrotation Yrotation Zrotation
								JOINT mixamorig:RightHandThumb1
								{
									OFFSET -4.492897 -2.767944 4.026622
									CHANNELS 3 Xrotation Yrotation Zrotation
									JOINT mixamorig:RightHandThumb2
									{
										OFFSET -4.113335 -2.374832 2.374833
										CHANNELS 3 Xrotation Yrotation Zrotation
										JOINT mixamorig:RightHandThumb3
										{
											OFFSET -4.066299 -2.347672 2.347678
											CHANNELS 3 Xrotation Yrotation Zrotation
											JOINT mixamorig:RightHandThumb4
											{
												OFFSET -3.138756 -1.812164 1.812160
												CHANNELS 3 Xrotation Yrotation Zrotation
												End Site
												{
													OFFSET -2.613274 -1.789185 2.527684
												}
											}
										}
									}
								}
								JOINT mixamorig:RightHandIndex1
								{
									OFFSET -12.930191 -0.141510 3.700550
									CHANNELS 3 Xrotation Yrotation Zrotation
									JOINT mixamorig:RightHandIndex2
									{
										OFFSET -4.764015 0.000000 0.000000
										CHANNELS 3 Xrotation Yrotation Zrotation
										JOINT mixamorig:RightHandIndex3
										{
											OFFSET -4.419807 0.000000 0.000000
											CHANNELS 3 Xrotation Yrotation Zrotation
											JOINT mixamorig:RightHandIndex4
											{
												OFFSET -3.701851 0.000000 0.000000
												CHANNELS 3 Xrotation Yrotation Zrotation
												End Site
												{
													OFFSET -3.701797 0.000153 -0.018699
												}
											}
										}
									}
								}
								JOINT mixamorig:RightHandMiddle1
								{
									OFFSET -12.168388 0.000000 0.000001
									CHANNELS 3 Xrotation Yrotation Zrotation
									JOINT mixamorig:RightHandMiddle2
									{
										OFFSET -5.385834 0.000000 0.000000
										CHANNELS 3 Xrotation Yrotation Zrotation
										JOINT mixamorig:RightHandMiddle3
										{
											OFFSET -5.321609 0.000000 0.000000
											CHANNELS 3 Xrotation Yrotation Zrotation
											JOINT mixamorig:RightHandMiddle4
											{
												OFFSET -4.501015 0.000000 0.000000
												CHANNELS 3 Xrotation Yrotation Zrotation
												End Site
												{
													OFFSET -4.500992 -0.000168 0.011299
												}
											}
										}
									}
								}
								JOINT mixamorig:RightHandRing1
								{
									OFFSET -11.815239 0.302551 -3.905540
									CHANNELS 3 Xrotation Yrotation Zrotation
									JOINT mixamorig:RightHandRing2
									{
										OFFSET -4.583313 0.000000 0.000000
										CHANNELS 3 Xrotation Yrotation Zrotation
										JOINT mixamorig:RightHandRing3
										{
											OFFSET -4.612907 0.000000 0.000000
											CHANNELS 3 Xrotation Yrotation Zrotation
											JOINT mixamorig:RightHandRing4
											{
												OFFSET -3.358940 0.000000 0.000000
												CHANNELS 3 Xrotation Yrotation Zrotation
												End Site
												{
													OFFSET -3.358910 -0.000198 0.016799
												}
											}
										}
									}
								}
								JOINT mixamorig:RightHandPinky1
								{
									OFFSET -10.511444 -0.263382 -6.996516
									CHANNELS 3 Xrotation Yrotation Zrotation
									JOINT mixamorig:RightHandPinky2
									{
										OFFSET -4.477509 0.000000 0.000000
										CHANNELS 3 Xrotation Yrotation Zrotation
										JOINT mixamorig:RightHandPinky3
										{
											OFFSET -3.497902 0.000000 0.000000
											CHANNELS 3 Xrotation Yrotation Zrotation
											JOINT mixamorig:RightHandPinky4
											{
												OFFSET -2.797302 0.000000 0.000000
												CHANNELS 3 Xrotation Yrotation Zrotation
												End Site
												{
													OFFSET -2.797302 -0.000031 0.002200
												}
											}
										}
									}
								}
							}
						}
					}
				}
			}
		}
	}
	JOINT mixamorig:LeftUpLeg
	{
		OFFSET 13.580900 -8.149200 -1.796100
		CHANNELS 3 Xrotation Yrotation Zrotation
		JOINT mixamorig:LeftLeg
		{
			OFFSET 1.779603 -35.946629 -2.676069
			CHANNELS 3 Xrotation Yrotation Zrotation
			JOINT mixamorig:LeftFoot
			{
				OFFSET -1.779600 -26.652353 -2.057156
				CHANNELS 3 Xrotation Yrotation Zrotation
				JOINT mixamorig:LeftToeBase
				{
					OFFSET -1.192457 -6.581663 13.403625
					CHANNELS 3 Xrotation Yrotation Zrotation
					JOINT mixamorig:LeftToe_End
					{
						OFFSET -0.351332 -0.163919 5.937958
						CHANNELS 3 Xrotation Yrotation Zrotation
						End Site
						{
							OFFSET -0.351332 -0.163919 5.937958
						}
					}
				}
			}
		}
	}
	JOINT mixamorig:RightUpLeg
	{
		OFFSET -13.580900 -8.149200 -2.255300
		CHANNELS 3 Xrotation Yrotation Zrotation
		JOINT mixamorig:RightLeg
		{
			OFFSET -1.779582 -35.946686 -2.316831
			CHANNELS 3 Xrotation Yrotation Zrotation
			JOINT mixamorig:RightFoot
			{
				OFFSET 1.779588 -26.652205 -2.090130
				CHANNELS 3 Xrotation Yrotation Zrotation
				JOINT mixamorig:RightToeBase
				{
					OFFSET 1.192391 -6.582412 13.372187
					CHANNELS 3 Xrotation Yrotation Zrotation
					JOINT mixamorig:RightToe_End
					{
						OFFSET 0.351304 -0.164246 5.913598
						CHANNELS 3 Xrotation Yrotation Zrotation
						End Site
						{
							OFFSET 0.351304 -0.164246 5.913598
						}
					}
				}
			}
		}
	}
}
MOTION
Frames: 4
Frame Time: 0.016667
-74.936546 73.889839 -2.562610 -2.304086 49.390747 2.616529 3.252193 16.276016 0.975269 0.082434 2.219686 -1.399597 0.129991 2.211466 -1.410072 3.590907 -11.727614 4.388412 23.908389 -56.358903 38.319895 -0.000000 0.000000 0.000001 -0.157676 2.519036 5.278236 53.868643 -31.204593 -64.509559 0.000005 -56.753056 -0.000004 37.536978 -3.180366 -17.017838 -1.540030 3.690179 6.142360 3.939066 7.948706 0.746832 -0.579473 1.575009 2.538720 0.000001 0.000000 -0.000000 0.636936 2.897103 -24.793450 0.188363 1.602670 -13.405756 0.213956 1.706408 -14.291803 0.000001 -0.000000 -0.000001 0.714346 3.058884 -26.283254 0.176797 1.553383 -12.985946 0.187142 1.597534 -13.361940 0.000000 -0.000000 0.000000 0.880093 3.373303 -29.237171 0.132836 1.348620 -11.249267 0.157914 1.469109 -12.269889 0.000000 -0.000000 0.000000 3.287987 7.149362 -32.417270 0.063678 -3.054645 -8.824168 0.144806 1.407524 -11.747773 -0.000000 0.000000 -0.000000 1.721640 19.252300 1.612591 47.026662 49.328244 23.831124 0.000017 66.115371 -0.000030 23.013482 -6.117776 -3.082717 -13.070946 -12.221514 -13.977594 -5.547022 -23.254342 -2.086125 -1.273764 0.137303 -2.094871 0.000000 0.000003 -0.000004 0.053531 -0.862949 7.099724 0.008225 -0.339150 2.784057 0.193621 -1.632610 13.525463 0.000001 -0.000001 -0.000001 0.128780 -1.334721 11.022043 0.024704 -0.586849 4.821343 0.069801 -0.984781 8.108624 -0.000000 -0.000000 0.000000 0.212756 -1.710205 14.181752 0.014914 -0.456207 3.746223 0.022000 -0.553749 4.548803 0.000002 -0.000000 -0.000001 0.221415 -1.744088 14.469086 0.000002 0.006112 -0.000020 0.010272 -0.378670 3.108750 -0.000001 -0.000000 -0.000001 -23.223639 -4.427231 11.261186 9.890961 -9.293139 -8.659490 10.788464 -15.826983 -7.552668 -0.000018 0.000009 0.000005 -0.000000 -0.000001 0.000001 5.820167 -1.565586 -5.067139 22.879390 -1.327571 -1.875970 -25.344336 -15.874096 4.364681 -0.000571 -0.000009 0.000437 -0.000000 0.000001 -0.000001 
-75.012238 73.859093 -2.488892 -2.074438 49.622684 2.426793 3.260962 15.558872 0.960851 0.345864 2.120941 -1.353276 0.389844 2.112557 -1.356211 2.338592 -11.604213 5.588483 19.142206 -55.026883 37.293632 -0.000002 0.000001 0.000001 -0.181389 2.618147 5.496778 52.544283 -31.701838 -64.991019 0.000012 -55.579411 0.000004 37.355473 -4.849464 -16.761224 -1.540040 3.690167 6.142379 3.939056 7.948713 0.746841 -0.579474 1.575010 2.538718 -0.000001 -0.000000 0.000001 0.799792 3.225925 -27.842368 0.269015 1.909469 -16.036990 0.254900 1.859660 -15.607459 -0.000001 -0.000001 -0.000001 0.895616 3.400863 -29.500157 0.256774 1.866382 -15.665374 0.226489 1.754870 -14.707002 0.000002 0.000000 0.000003 1.101847 3.741322 -32.810163 0.201670 1.657481 -13.873420 0.192910 1.621589 -13.567090 0.000001 -0.000000 -0.000000 3.797534 7.382493 -36.444551 0.114870 -2.765842 -11.252100 0.176204 1.550788 -12.963865 0.000001 0.000000 0.000001 1.696704 19.356609 1.670671 47.789270 49.586163 21.780777 -0.000023 65.906524 0.000026 21.965962 -6.068489 -0.509780 -13.074538 -12.222414 -13.977233 -5.550134 -23.258582 -2.086673 -1.273764 0.137307 -2.094872 -0.000001 0.000001 0.000001 0.053469 -0.862465 7.095730 0.008183 -0.338040 2.774965 0.193549 -1.632363 13.523372 0.000000 -0.000000 -0.000000 0.131315 -1.347656 11.130248 0.025177 -0.592390 4.867037 0.068948 -0.978767 8.058762 0.000001 0.000000 -0.000000 0.215747 -1.721974 14.281517 0.015225 -0.460985 3.785508 0.021543 -0.547970 4.501238 0.000002 -0.000001 0.000001 0.221212 -1.743272 14.462198 -0.000007 0.007353 -0.000044 0.010238 -0.378020 3.103425 0.000000 0.000002 -0.000001 -23.497119 -3.930935 11.464865 9.499767 -9.259789 -8.801315 11.193140 -17.001454 -7.736132 -0.000041 0.000002 0.000036 -0.000000 0.000001 0.000000 5.538763 -2.325306 -4.760749 23.159414 -1.593434 -2.449895 -25.447444 -15.558677 4.758898 -0.000373 0.000001 0.000282 0.000000 0.000001 -0.000000 
-75.087326 73.847382 -2.398914 -1.768256 49.616270 2.138509 3.176157 14.862767 0.964245 0.603874 2.024340 -1.272713 0.643045 2.016130 -1.268109 1.560462 -11.327270 6.579302 13.724754 -53.642448 35.161752 -0.000000 -0.000000 0.000002 -0.238675 2.908282 5.637133 51.502522 -32.027392 -65.030818 0.000030 -55.235132 0.000017 35.800337 -6.281446 -16.467410 -1.540026 3.690181 6.142352 3.939050 7.948711 0.746839 -0.579476 1.575012 2.538721 -0.000000 -0.000003 -0.000000 0.938851 3.476006 -30.220636 0.354600 2.185201 -18.432536 0.295210 1.998276 -16.805054 -0.000000 -0.000000 0.000001 1.059636 3.675138 -32.157179 0.346566 2.160963 -18.220503 0.268117 1.906392 -16.010424 -0.000001 0.000001 0.000001 1.314512 4.051482 -35.938816 0.286481 1.969191 -16.553117 0.232967 1.779318 -14.916708 0.000001 -0.000001 0.000000 4.274847 7.563327 -40.113247 0.184666 -2.453317 -13.902519 0.213942 1.706397 -14.291741 0.000001 0.000001 0.000001 1.685853 19.340603 1.634084 49.097196 49.965979 19.165777 0.000019 65.586079 -0.000008 20.635648 -6.456625 2.085167 -13.074103 -12.222308 -13.977294 -5.549744 -23.258054 -2.086608 -1.273763 0.137301 -2.094870 0.000000 0.000007 0.000003 0.053472 -0.862482 7.095909 0.008193 -0.338132 2.775744 0.193561 -1.632370 13.523457 0.000001 -0.000000 -0.000000 0.134166 -1.362038 11.250668 0.025833 -0.600128 4.930633 0.068120 -0.972822 8.009471 0.000001 0.000001 -0.000000 0.219192 -1.735455 14.395839 0.015691 -0.467905 3.842453 0.021108 -0.542380 4.455151 0.000001 0.000000 -0.000000 0.221227 -1.743347 14.462789 0.000005 0.007222 -0.000017 0.010238 -0.378087 3.104001 0.000000 -0.000000 -0.000001 -23.598783 -3.431487 11.784817 8.970192 -9.177153 -8.976974 11.572726 -17.777843 -7.702427 -0.137617 0.000004 0.000001 -0.000000 0.000002 0.000000 5.176565 -3.238281 -4.559642 23.321963 -1.839843 -2.969765 -25.433830 -14.817178 5.215430 -0.126308 -0.000012 -0.000001 -0.000000 0.000001 -0.000000 
-75.165642 73.861206 -2.301379 -1.397348 49.320885 1.782932 2.990171 14.313463 1.036748 0.813516 1.947510 -1.227371 0.849310 1.939506 -1.216406 1.429030 -10.920783 7.290666 8.160015 -52.317142 32.088601 -0.000001 0.000000 0.000001 -0.309231 3.276236 5.712570 50.831504 -32.106151 -64.654318 0.000039 -55.656773 0.000018 33.185201 -7.336325 -16.679506 -1.540030 3.690186 6.142350 3.939058 7.948708 0.746820 -0.579473 1.575014 2.538719 -0.000001 -0.000003 0.000001 1.046303 3.653909 -31.948760 0.435479 2.414139 -20.447520 0.331342 2.114162 -17.812208 0.000001 0.000000 -0.000000 1.194632 3.881147 -34.205809 0.436649 2.417295 -20.475471 0.308304 2.041142 -17.176850 -0.000001 -0.000000 -0.000000 1.499736 4.294762 -38.483741 0.379274 2.257805 -19.068758 0.274606 1.928779 -16.203680 -0.000001 -0.000001 -0.000000 4.684687 7.691677 -43.200301 0.267999 -2.147204 -16.528076 0.254881 1.859646 -15.607442 0.000000 0.000000 0.000000 1.702602 19.386300 1.530568 50.828956 50.263007 16.309276 -0.000000 65.148694 0.000024 19.266724 -7.120144 4.374761 -13.071497 -12.221653 -13.977557 -5.547511 -23.255005 -2.086186 -1.273761 0.137304 -2.094872 -0.000003 0.000002 0.000001 0.053512 -0.862786 7.098406 0.008222 -0.338876 2.781870 0.193600 -1.632528 13.524773 -0.000001 -0.000001 -0.000000 0.137215 -1.377278 11.378269 0.026661 -0.609664 5.009237 0.067274 -0.966808 7.959663 -0.000000 -0.000000 -0.000000 0.222977 -1.750141 14.520373 0.016283 -0.476564 3.913665 0.020656 -0.536703 4.408468 0.000001 0.000000 -0.000000 0.221375 -1.743893 14.467433 -0.000009 0.006352 -0.000006 0.010258 -0.378539 3.107732 0.000001 -0.000000 -0.000000 -23.323122 -3.145184 12.144189 8.018577 -9.031073 -9.082732 11.997352 -17.695405 -7.456745 -0.307628 0.000017 0.000002 -0.000000 -0.000000 -0.000001 4.735616 -4.111189 -4.553112 23.350889 -1.899921 -3.263580 -25.315367 -13.802393 5.595314 -0.263708 0.000005 0.000004 -0.000000 -0.000002 -0.000001 
